<?xml version="1.0" standalone="no"?><svg xmlns="http://www.w3.org/2000/svg" viewBox="0 0 1440 320"><path fill="#e7008a" fill-opacity="1" d="M0,256L24,229.3C48,203,96,149,144,154.7C192,160,240,224,288,218.7C336,213,384,139,432,133.3C480,128,528,192,576,229.3C624,267,672,277,720,272C768,267,816,245,864,245.3C912,245,960,267,1008,234.7C1056,203,1104,117,1152,96C1200,75,1248,117,1296,149.3C1344,181,1392,203,1416,213.3L1440,224L1440,320L1416,320C1392,320,1344,320,1296,320C1248,320,1200,320,1152,320C1104,320,1056,320,1008,320C960,320,912,320,864,320C816,320,768,320,720,320C672,320,624,320,576,320C528,320,480,320,432,320C384,320,336,320,288,320C240,320,192,320,144,320C96,320,48,320,24,320L0,320Z"></path></svg>